<svg width="82" height="68" viewBox="0 0 82 68" fill="none" xmlns="http://www.w3.org/2000/svg">
<path d="M10.4529 42.3593C10.4529 42.3593 -9.09712 65.5793 8.03288 66.8393C8.03288 66.8393 29.1629 66.8493 46.4729 50.5993L68.3829 30.3393C68.3829 30.3393 81.9029 19.0593 72.9529 16.0693C72.9529 16.0693 62.6829 17.1093 42.9429 25.4493C42.9529 25.4393 18.1829 29.8893 10.4529 42.3593Z" stroke="#55534B" stroke-miterlimit="10"/>
<path d="M6.01294 52.2698C6.01294 52.2698 22.3129 53.8498 9.50293 47.0298" stroke="#55534B" stroke-miterlimit="10"/>
<path d="M2.76294 57.9398C2.76294 57.9398 7.45295 56.8798 9.52295 65.4298" stroke="#55534B" stroke-miterlimit="10"/>
<path d="M22.3293 49.6989C23.3798 49.1108 23.4681 47.2707 22.5265 45.589C21.585 43.9073 19.9701 43.0208 18.9196 43.6089C17.8691 44.197 17.7809 46.0371 18.7224 47.7188C19.664 49.4006 21.2789 50.2871 22.3293 49.6989Z" stroke="#55534B" stroke-miterlimit="10"/>
<path d="M29.8677 45.1897C30.9182 44.6015 31.0065 42.7614 30.0649 41.0797C29.1233 39.398 27.5084 38.5115 26.458 39.0996C25.4075 39.6878 25.3192 41.5279 26.2608 43.2096C27.2023 44.8913 28.8172 45.7778 29.8677 45.1897Z" stroke="#55534B" stroke-miterlimit="10"/>
<path d="M38.6292 40.7141C39.6796 40.1259 39.7679 38.2859 38.8263 36.6041C37.8848 34.9224 36.2699 34.0359 35.2194 34.624C34.169 35.2122 34.0807 37.0523 35.0223 38.734C35.9638 40.4157 37.5787 41.3022 38.6292 40.7141Z" stroke="#55534B" stroke-miterlimit="10"/>
<path d="M46.7472 35.3108C47.7977 34.7226 47.886 32.8825 46.9444 31.2008C46.0028 29.5191 44.3879 28.6326 43.3375 29.2207C42.287 29.8089 42.1987 31.6489 43.1403 33.3307C44.0819 35.0124 45.6967 35.8989 46.7472 35.3108Z" stroke="#55534B" stroke-miterlimit="10"/>
<path d="M54.8557 31.1951C55.9062 30.6069 55.9945 28.7668 55.0529 27.0851C54.1113 25.4034 52.4965 24.5169 51.446 25.105C50.3955 25.6931 50.3072 27.5332 51.2488 29.215C52.1904 30.8967 53.8053 31.7832 54.8557 31.1951Z" stroke="#55534B" stroke-miterlimit="10"/>
<path d="M55.9328 54.4694C45.2428 56.8394 33.1828 56.3394 32.2828 52.2694C31.3828 48.1994 41.9728 42.0994 52.6628 39.7294C63.3528 37.3594 80.0428 34.6594 80.9428 38.7294C81.8428 42.7894 66.6228 52.0894 55.9328 54.4694Z" fill="white" stroke="#55534B" stroke-miterlimit="10"/>
<path d="M57.9529 18.3296C57.9529 18.3296 64.3229 0.62956 67.9629 1.01956C67.9629 1.01956 70.4729 -0.100436 73.0029 14.6096" stroke="#55534B" stroke-miterlimit="10"/>
</svg>
