<svg width="134" height="76" viewBox="0 0 134 76" fill="none" xmlns="http://www.w3.org/2000/svg">
<path d="M133 75.3071C133 75.3071 66.2915 12.6727 20.3103 22.1363" stroke="#73935C" stroke-miterlimit="10"/>
<path d="M122.769 65.6613C122.769 65.6613 126.964 50.1363 119.162 46.4277C119.162 46.4277 114.893 54.7638 120.995 64.4555" stroke="#73935C" stroke-miterlimit="10"/>
<path d="M119.255 63.7451C119.255 63.7451 103.53 59.5934 99.7781 67.2972C99.7781 67.2972 108.223 71.5141 118.03 65.4983" stroke="#73935C" stroke-miterlimit="10"/>
<path d="M101.214 51.0356C101.214 51.0356 81.8238 45.9128 77.1978 55.4155C77.1978 55.4155 87.6144 60.6165 99.7054 53.1995" stroke="#73935C" stroke-miterlimit="10"/>
<path d="M78.3823 36.3059C78.3823 36.3059 56.5432 34.0247 53.1813 45.0656C53.1813 45.0656 65.3318 48.9435 77.1249 38.8934" stroke="#73935C" stroke-miterlimit="10"/>
<path d="M52.2417 25.6104C52.2417 25.6104 28.5231 25.8646 26.3194 38.1307C26.3194 38.1307 39.853 40.7899 51.2225 28.5433" stroke="#73935C" stroke-miterlimit="10"/>
<path d="M23.5861 22.7622C23.5861 22.7622 -1.29057 32.0498 1.17129 45.8151C1.17129 45.8151 16.4587 43.4687 23.6589 26.2426" stroke="#73935C" stroke-miterlimit="10"/>
<path d="M102.293 50.1103C102.293 50.1103 106.144 30.6617 96.2309 26.7446C96.2309 26.7446 91.6844 37.3553 100.003 48.7742" stroke="#73935C" stroke-miterlimit="10"/>
<path d="M77.3235 35.0087C77.3235 35.0087 58.4162 21.3868 65.312 11.1411C65.312 11.1411 78.078 16.8571 78.5809 32.2843" stroke="#73935C" stroke-miterlimit="10"/>
<path d="M51.6395 24.0789C51.6395 24.0789 28.6026 13.2466 34.1285 1C34.1285 1 49.0254 4.60422 52.48 20.9309" stroke="#73935C" stroke-miterlimit="10"/>
</svg>
