<svg width="109" height="111" viewBox="0 0 109 111" fill="none" xmlns="http://www.w3.org/2000/svg">
<path d="M12.8166 149.23C12.8166 149.23 22.0166 37 71.6866 8.27002" stroke="#73935C" stroke-miterlimit="10"/>
<path d="M14.1866 131.97C14.1866 131.97 -2.41343 121.05 1.63657 111.26C1.63657 111.26 12.3866 115.48 14.8066 129.41" stroke="#73935C" stroke-miterlimit="10"/>
<path d="M21.7866 100.9C21.7866 100.9 35.2366 80.3701 47.2666 85.3701C47.2666 85.3701 42.0666 98.6701 24.9366 101.67" fill="#C5DDB5"/>
<path d="M30.4565 68.6802C30.4565 68.6802 48.4665 48.7702 60.6165 56.2402C60.6165 56.2402 52.7365 69.7302 33.7265 70.0502" fill="#C5DDB5"/>
<path d="M45.4565 37.5002C45.4565 37.5002 67.2665 18.4001 79.3765 27.9401C79.3765 27.9401 69.2365 41.4201 48.7965 39.3801" fill="#C5DDB5"/>
<path d="M69.2166 11.5202C69.2166 11.5202 99.5266 -0.169791 108.607 14.5502C108.607 14.5502 92.7566 24.8402 72.0066 14.7902" fill="#C5DDB5"/>
<path d="M20.0466 100.92C20.0466 100.92 0.526565 86.0999 6.33656 74.3999C6.33656 74.3999 19.2166 80.4899 21.0266 97.8199" fill="#C5DDB5"/>
<path d="M30.3565 66.6198C30.3565 66.6198 36.3665 38.6198 21.6565 34.7798C21.6565 34.7798 14.7365 50.4698 26.9765 65.1198" fill="#C5DDB5"/>
<path d="M44.7565 35.59C44.7565 35.59 56.8265 6.81 41.7065 0C41.7065 0 31.1065 15.47 41.3965 33.37" fill="#C5DDB5"/>
</svg>
