<svg width="127" height="115" viewBox="0 0 127 115" fill="none" xmlns="http://www.w3.org/2000/svg">
<path d="M126 59.1925C126.049 71.2528 97.075 76.4533 62.4915 76.5772C27.908 76.701 1.50912 66.2009 1.47198 54.1406C1.43483 42.0803 21.4445 31.5059 56.0404 31.3821C90.6363 31.2582 125.963 47.1322 126 59.1925Z" stroke="#D1E5BD" stroke-miterlimit="10"/>
<path d="M1.26152 56.1348C1.26152 56.1348 -6.15543 107.62 58.0092 114.529C58.0092 114.529 114.014 119.309 126 59.1932C126 59.1932 108.194 84.8987 51.6819 76.033C51.6819 76.033 17.4079 74.0766 1.26152 56.1348Z" fill="#55534B"/>
<path d="M66.5291 74.8726C94.2798 74.7724 116.749 67.1517 116.715 57.8513C116.682 48.5509 94.1581 41.0928 66.4074 41.193C38.6568 41.2932 16.1876 48.914 16.2212 58.2143C16.2548 67.5147 38.7784 74.9729 66.5291 74.8726Z" fill="#EAEBA0"/>
<path d="M86.0922 19.9043C86.0922 19.9043 63.1727 22.0341 53.7003 59.5893" stroke="#797A42" stroke-width="0.5" stroke-miterlimit="10"/>
<path d="M86.736 21.9854C86.736 21.9854 66.6397 23.8427 57.8359 58.6367" stroke="#797A42" stroke-width="0.5" stroke-miterlimit="10"/>
<path d="M85.4234 24.585C85.4234 24.585 65.6862 32.8563 63.2593 55.652" stroke="#797A42" stroke-width="0.5" stroke-miterlimit="10"/>
<path d="M84.6929 25.4644C84.6929 25.4644 64.6957 39.7658 65.8967 60.3946" stroke="#797A42" stroke-width="0.5" stroke-miterlimit="10"/>
<path d="M89.9431 22.0596C90.005 22.592 100.753 42.0692 78.8857 66.0659" stroke="#797A42" stroke-width="0.5" stroke-miterlimit="10"/>
<path d="M87.999 23.4336C87.999 23.4336 98.4868 35.1843 78.2914 67.2419" stroke="#797A42" stroke-width="0.5" stroke-miterlimit="10"/>
<path d="M86.8227 26.2563C86.8227 26.2563 92.4195 43.2571 76.7312 63.2668" stroke="#797A42" stroke-width="0.5" stroke-miterlimit="10"/>
<path d="M86.5998 27.3589C84.2224 28.5723 84.4948 51.1699 71.5802 65.8056" stroke="#797A42" stroke-width="0.5" stroke-miterlimit="10"/>
<path d="M81.1392 31.7295C81.1392 31.7295 62.2687 52.3583 65.8224 64.4681C65.8224 64.4681 73.6108 61.9297 80.8296 32.9677" stroke="#797A42" stroke-width="0.5" stroke-miterlimit="10"/>
<path d="M83.8634 26.8394C81.486 28.0528 81.7584 50.6504 68.8438 65.2862" stroke="#797A42" stroke-width="0.5" stroke-miterlimit="10"/>
<path d="M80.6315 29.8594C80.6315 29.8594 63.0364 38.2917 64.9185 69.6682" stroke="#797A42" stroke-width="0.5" stroke-miterlimit="10"/>
<path d="M81.6593 31.2583C81.6593 31.2583 66.2187 38.6381 67.9522 67.7115" stroke="#797A42" stroke-width="0.5" stroke-miterlimit="10"/>
<path d="M81.2754 33.6235C81.2754 33.6235 67.7292 45.7829 71.4934 63.8237" stroke="#797A42" stroke-width="0.5" stroke-miterlimit="10"/>
<path d="M80.9164 34.5156C80.9164 34.5156 68.658 51.343 74.7625 66.6598" stroke="#797A42" stroke-width="0.5" stroke-miterlimit="10"/>
<path d="M84.2223 30.3545C84.3956 30.7383 97.7684 42.3653 86.4759 67.1049" stroke="#797A42" stroke-width="0.5" stroke-miterlimit="10"/>
<path d="M83.0212 31.9893C83.0212 31.9893 94.2643 37.8089 86.2777 68.1825" stroke="#797A42" stroke-width="0.5" stroke-miterlimit="10"/>
<path d="M82.7983 34.4775C82.7983 34.4775 91.4783 45.7453 84.0613 65.6188" stroke="#797A42" stroke-width="0.5" stroke-miterlimit="10"/>
<path d="M82.8975 35.3818C81.3249 37.0163 87.1817 54.1161 80.6191 69.0862" stroke="#797A42" stroke-width="0.5" stroke-miterlimit="10"/>
<path d="M79.6781 40.3228C79.6781 40.3228 69.8962 61.6202 75.7282 69.7677C75.7282 69.7677 81.2631 65.5329 79.7277 41.3505" stroke="#797A42" stroke-width="0.5" stroke-miterlimit="10"/>
<path d="M80.5944 35.8022C79.0218 37.4367 84.8786 54.5365 78.316 69.5066" stroke="#797A42" stroke-width="0.5" stroke-miterlimit="10"/>
<path d="M79.2942 26.6772C79.2942 26.6772 60.4484 28.4355 52.66 59.3044" stroke="#797A42" stroke-width="0.5" stroke-miterlimit="10"/>
<path d="M79.8267 28.3984C79.8267 28.3984 63.2964 29.9214 56.0652 58.5367" stroke="#797A42" stroke-width="0.5" stroke-miterlimit="10"/>
<path d="M78.7493 30.5278C78.7493 30.5278 62.5286 37.3257 60.5227 56.0723" stroke="#797A42" stroke-width="0.5" stroke-miterlimit="10"/>
<path d="M78.1551 31.2593C78.1551 31.2593 61.7115 43.0224 62.7021 59.9736" stroke="#797A42" stroke-width="0.5" stroke-miterlimit="10"/>
<path d="M82.4764 28.46C82.5259 28.8933 91.3544 44.9159 73.3878 64.6408" stroke="#797A42" stroke-width="0.5" stroke-miterlimit="10"/>
<path d="M80.8668 29.5869C80.8668 29.5869 89.4972 39.245 72.8802 65.6068" stroke="#797A42" stroke-width="0.5" stroke-miterlimit="10"/>
<path d="M79.9009 31.9028C79.9009 31.9028 84.5071 45.8824 71.6049 62.3259" stroke="#797A42" stroke-width="0.5" stroke-miterlimit="10"/>
<path d="M79.7152 32.8066C77.7588 33.8096 77.9817 52.3829 67.3701 64.4184" stroke="#797A42" stroke-width="0.5" stroke-miterlimit="10"/>
<path d="M75.2329 36.3975C75.2329 36.3975 59.7179 53.3611 62.6401 63.3164C62.6401 63.3164 69.0418 61.2362 74.9728 37.4128" stroke="#797A42" stroke-width="0.5" stroke-miterlimit="10"/>
<path d="M77.474 32.3857C75.5176 33.3887 75.7405 51.962 65.1289 63.9975" stroke="#797A42" stroke-width="0.5" stroke-miterlimit="10"/>
<path d="M101.05 11.0015C97.8179 17.7746 91.4039 13.3294 88.1226 13.1065C83.4422 12.7846 79.1703 6.0239 79.8761 3.63413C80.5819 1.25675 82.8231 -0.266266 91.6392 2.43306C95.131 3.51031 102.115 8.76035 101.05 11.0015Z" fill="#A9AA7D" stroke="#797A42" stroke-miterlimit="10"/>
<path d="M79.6409 5.56592C79.6409 5.56592 85.3243 16.9328 99.4525 13.9363L92.6175 34.466C92.6175 34.466 76.4091 40.6943 71.5801 26.4176L79.6409 5.56592Z" fill="#A9AA7D" stroke="#797A42" stroke-miterlimit="10"/>
</svg>
