<svg width="244" height="550" viewBox="0 0 244 550" fill="none" xmlns="http://www.w3.org/2000/svg">
<path d="M211.5 0.5L197 18" stroke="black"/>
<path d="M186 31.5L171.5 52" stroke="black"/>
<path d="M166.5 63.5C158.833 82.1667 148.1 117.1 166.5 107.5" stroke="black"/>
<path d="M175 103.671C167 83.8372 141.9 49.4705 105.5 70.6705" stroke="black"/>
<path d="M95.5 74.5C87.1667 84.1667 70.3 110.1 69.5 136.5" stroke="black"/>
<path d="M70.5 152C70 164.667 71 191.7 79 198.5" stroke="black"/>
<path d="M85 214C90.8333 224.667 105 245.8 115 245" stroke="black"/>
<path d="M123 253.5C130.167 259.667 146.2 272.4 153 274" stroke="black"/>
<path d="M235.5 369C242.833 376 251.7 394.1 228.5 410.5" stroke="black"/>
<path d="M217 419.5C210.667 425 196.2 436 189 436" stroke="black"/>
<path d="M174.5 448.5C155.333 455.5 114.1 467.4 102.5 459" stroke="black"/>
<path d="M87 441.5C81.1667 432.333 76.5 413.3 104.5 410.5C110.333 415.167 118.5 429.3 104.5 448.5C96 459.167 77.3 480.9 70.5 482.5" stroke="black"/>
<path d="M64 492L40 510.5" stroke="black"/>
<path d="M30 524L1 549" stroke="black"/>
</svg>
