<svg width="165" height="197" viewBox="0 0 165 197" fill="none" xmlns="http://www.w3.org/2000/svg">
<path d="M25.3657 81.5443C28.2954 82.7992 31.1706 84.0393 34.2287 85.0965M41.3329 176.179C30.8594 163.462 32.6182 144.214 19.7585 132.994C14.0375 126.527 14.8922 117.224 16.4484 109.369C17.3179 96.4053 5.76742 86.1093 5.31291 72.9677M72.5756 6.86927C71.6468 23.7409 49.5684 13.4895 46.214 28.5035C50.4034 32.8907 56.0255 28.5875 59.5726 26.6855C77.5159 27.3277 68.9099 43.6905 55.9909 45.0096C47.3601 49.5796 36.6149 54.2236 32.0154 63.7093C29.0068 66.1844 29.5008 71.8363 23.9133 71.4757C21.7544 68.4126 22.3917 57.0693 16.9425 62.6817C4.84358 71.0113 19.1656 83.5403 19.4818 94.681C40.2608 92.8036 50.5071 111.666 65.4467 122.412C73.4204 128.815 89.7334 134.946 77.2294 145.859C70.6489 159.391 51.4408 170.473 59.1231 186.742C59.044 187.483 60.0815 187.339 59.7307 188.184M189.765 128.958C179.776 128.217 177.741 144.397 179.766 151.605M104.999 38.8884C105.819 38.6908 106.694 38.503 107.375 37.9794C108.63 37.2235 108.433 35.1139 108.299 33.78C107.706 32.7622 107.212 30.9738 106.032 30.2525M188.056 61.0661C183.832 62.2469 172.963 56.3727 177.365 63.1312C178.072 67.711 182.009 68.7831 184.212 70.3394C185.857 73.6445 186.959 82.0038 182.444 83.6934C179.573 83.7972 164.515 68.462 168.695 77.4685C169.505 83.313 173.917 87.9719 177.479 91.6476C179.346 96.8351 187.542 94.1129 187.853 98.0899C184.781 108.109 178.249 115.169 174.169 124.63C174.89 135.257 174.514 145.923 168.211 154.965C139.502 186.534 132.541 152.712 142.541 125.905C146.187 93.9548 112.918 120.93 101.635 104.893C91.4576 94.1623 100.36 74.5733 110.764 66.9403C114.618 62.7261 121.292 62.5483 126.524 64.2972C137.057 66.0066 152.046 65.1865 161.255 59.8063C160.642 56.5604 155.227 53.1169 151.542 52.781C150.934 49.377 159.56 48.1863 153.889 45.3159C147.451 44.7577 147.461 57.1533 141.454 50.6368C140.046 46.3436 130.674 46.3584 136.187 50.9481C136.434 55.9182 136.864 59.2085 133.692 53.8629C125.269 49.3671 117.35 59.1986 109.663 60.3745C102.242 51.7781 120.729 33.9084 128.742 31.1566C133.949 26.7447 121.391 19.8775 124.395 27.9453C122.305 33.1871 111.145 29.5163 116.233 24.3881C117.607 19.4329 121.47 16.0239 125.64 14.522C130.837 15.0507 133.04 14.7938 133.095 9.04801M83.889 5.75767C83.4641 9.14188 85.2475 12.3581 84.877 15.7423C84.877 18.7461 77.3875 24.1164 81.8041 25.5047C86.4135 27.0609 89.8075 25.2675 92.5741 21.6165C97.5984 17.7482 102.109 13.7711 101.304 6.64695C100.656 6.41475 99.7129 6.23689 99.8808 5.81695C95.0887 2.08196 89.1702 3.71231 83.889 5.75767ZM195.995 98.5C195.995 152.351 152.347 196 98.4975 196C44.6479 196 1 152.351 1 98.5C1 44.649 44.6479 1 98.4975 1C152.347 1 195.995 44.649 195.995 98.5Z" stroke="black" stroke-width="0.5" stroke-linecap="round" stroke-linejoin="round"/>
</svg>
